<svg xmlns="http://www.w3.org/2000/svg" viewBox="0 0 64 64" id="sql"><path d="M48.47949,51.33789h.93262v1h-.93262Zm-1.957,1h.93164v-1h-.93164Zm1.957,1.86816h.93262v-1h-.93262Zm-1.957,0h.93164v-1h-.93164ZM52.457,16.33643V57.5H17.23145V41.15869H11.543V28.50879h5.68848V6.5H43.30469Zm-8.87012-.30323h7.22181L43.58691,8.27142ZM12.543,40.15869H42.34375V29.50879H12.543ZM51.457,56.5V17.0332H42.58691V7.5H18.23145V28.50879h25.1123v12.6499H18.23145V56.5ZM26.7207,34.37451a2.92779,2.92779,0,0,0-.5039-.3125,5.58288,5.58288,0,0,0-.55664-.2373q-.2798-.10181-.50782-.207a1.11139,1.11139,0,0,1-.37207-.26758.613.613,0,0,1,.12793-.90332,1.36361,1.36361,0,0,1,.72852-.16944,1.75585,1.75585,0,0,1,.52344.07129,2.24673,2.24673,0,0,1,.36425.14307.5084.5084,0,0,0,.21582.07178.29459.29459,0,0,0,.25586-.14307.5059.5059,0,0,0,.09668-.28418.31241.31241,0,0,0-.15234-.25146,1.11307,1.11307,0,0,0-.38379-.17041,3.43274,3.43274,0,0,0-.46777-.08545,4.21426,4.21426,0,0,0-.45215-.02588,2.89368,2.89368,0,0,0-.65234.07129,2.203,2.203,0,0,0-.5879.22754,1.14683,1.14683,0,0,0-.44433.44824,1.37987,1.37987,0,0,0-.16406.6875,1.27567,1.27567,0,0,0,.26855.82861,1.68744,1.68744,0,0,0,.65137.49658c.25683.11084.51074.21338.76465.30909a2.02189,2.02189,0,0,1,.64746.38378.77746.77746,0,0,1,.26855.60254.69057.69057,0,0,1-.27637.59473,1.20269,1.20269,0,0,1-.73144.20361,1.49105,1.49105,0,0,1-.54883-.09619,1.16942,1.16942,0,0,1-.36328-.20752c-.08008-.07422-.16211-.14306-.24414-.207a.3752.3752,0,0,0-.21191-.09619.32024.32024,0,0,0-.25586.14258.45638.45638,0,0,0-.11231.28467q0,.30689.51563.59521a2.53255,2.53255,0,0,0,1.25195.28809,2.036,2.036,0,0,0,1.32422-.40528,1.4313,1.4313,0,0,0,.5-1.17968,1.68082,1.68082,0,0,0-.14356-.71534A1.30261,1.30261,0,0,0,26.7207,34.37451Zm4.35938-2.34814a1.54247,1.54247,0,0,1,.49219,1.26953v2.1792a1.6041,1.6041,0,0,1-.40821,1.19092,1.71861,1.71861,0,0,1-1.10351.46435v.52442a.23865.23865,0,0,1-.084.19091.30673.30673,0,0,1-.2041.07129.29538.29538,0,0,1-.19629-.07129.23867.23867,0,0,1-.084-.19091v-.52442a1.72851,1.72851,0,0,1-1.10352-.46045,1.60246,1.60246,0,0,1-.4082-1.19482V33.2959a1.54673,1.54673,0,0,1,.48828-1.26953,2.32671,2.32671,0,0,1,2.61133,0Zm-.35547,1.26953a.85674.85674,0,0,0-.95215-.96631.84446.84446,0,0,0-.94433.96631v2.1792a.80874.80874,0,0,0,.66406.92138v-.457c0-.16943.09375-.25439.28027-.25439a.32893.32893,0,0,1,.2041.06348.22576.22576,0,0,1,.084.19091v.44971a.80978.80978,0,0,0,.66406-.91406Zm4.76758,3.10058H33.41211V31.88037a.20465.20465,0,0,0-.124-.19141.73981.73981,0,0,0-.59961,0,.20465.20465,0,0,0-.124.19141v4.958a.216.216,0,0,0,.11231.19092.47974.47974,0,0,0,.26367.07129h2.55176a.21436.21436,0,0,0,.18847-.105.48663.48663,0,0,0,0-.49415A.21436.21436,0,0,0,35.49219,36.39648Z"></path></svg>